<svg xmlns="http://www.w3.org/2000/svg" xmlns:xlink="http://www.w3.org/1999/xlink" width="250" zoomAndPan="magnify" viewBox="0 0 187.5 165.000002" height="220" preserveAspectRatio="xMidYMid meet" version="1.0"><defs><g/><clipPath id="646465c484"><path d="M 0.316406 60 L 19 60 L 19 85 L 0.316406 85 Z M 0.316406 60 " clip-rule="nonzero"/></clipPath></defs><g fill="#000000" fill-opacity="1"><g transform="translate(30.401995, 83.749594)"><g><path d="M 10.25 -23.640625 C 11.5 -23.640625 12.722656 -23.457031 13.921875 -23.09375 C 15.128906 -22.726562 16.023438 -22.363281 16.609375 -22 L 17.453125 -21.4375 L 15.3125 -17.21875 C 15.144531 -17.332031 14.910156 -17.476562 14.609375 -17.65625 C 14.304688 -17.832031 13.738281 -18.070312 12.90625 -18.375 C 12.082031 -18.675781 11.316406 -18.828125 10.609375 -18.828125 C 9.722656 -18.828125 9.039062 -18.640625 8.5625 -18.265625 C 8.082031 -17.890625 7.84375 -17.382812 7.84375 -16.75 C 7.84375 -16.425781 7.957031 -16.128906 8.1875 -15.859375 C 8.414062 -15.585938 8.800781 -15.296875 9.34375 -14.984375 C 9.882812 -14.671875 10.359375 -14.421875 10.765625 -14.234375 C 11.179688 -14.046875 11.820312 -13.765625 12.6875 -13.390625 C 14.1875 -12.753906 15.46875 -11.882812 16.53125 -10.78125 C 17.59375 -9.6875 18.125 -8.445312 18.125 -7.0625 C 18.125 -5.726562 17.882812 -4.5625 17.40625 -3.5625 C 16.925781 -2.570312 16.269531 -1.796875 15.4375 -1.234375 C 14.601562 -0.671875 13.675781 -0.253906 12.65625 0.015625 C 11.644531 0.285156 10.550781 0.421875 9.375 0.421875 C 8.351562 0.421875 7.351562 0.316406 6.375 0.109375 C 5.40625 -0.0976562 4.59375 -0.351562 3.9375 -0.65625 C 3.28125 -0.96875 2.6875 -1.273438 2.15625 -1.578125 C 1.632812 -1.878906 1.253906 -2.128906 1.015625 -2.328125 L 0.640625 -2.640625 L 3.296875 -7.09375 C 3.515625 -6.90625 3.820312 -6.664062 4.21875 -6.375 C 4.613281 -6.082031 5.3125 -5.691406 6.3125 -5.203125 C 7.320312 -4.710938 8.210938 -4.46875 8.984375 -4.46875 C 11.210938 -4.46875 12.328125 -5.226562 12.328125 -6.75 C 12.328125 -7.070312 12.242188 -7.367188 12.078125 -7.640625 C 11.921875 -7.910156 11.640625 -8.179688 11.234375 -8.453125 C 10.835938 -8.722656 10.484375 -8.9375 10.171875 -9.09375 C 9.859375 -9.257812 9.347656 -9.503906 8.640625 -9.828125 C 7.941406 -10.160156 7.425781 -10.410156 7.09375 -10.578125 C 5.6875 -11.273438 4.597656 -12.144531 3.828125 -13.1875 C 3.054688 -14.226562 2.671875 -15.347656 2.671875 -16.546875 C 2.671875 -18.628906 3.4375 -20.332031 4.96875 -21.65625 C 6.507812 -22.976562 8.269531 -23.640625 10.25 -23.640625 Z M 10.25 -23.640625 "/></g></g></g><g fill="#000000" fill-opacity="1"><g transform="translate(52.122984, 83.749594)"><g><path d="M 14.96875 -23.21875 L 14.96875 -18.578125 L 6.984375 -18.578125 L 6.984375 -13.953125 L 14.640625 -13.953125 L 14.640625 -9.3125 L 6.984375 -9.3125 L 6.984375 -4.640625 L 14.96875 -4.640625 L 14.96875 0 L 1.6875 0 L 1.6875 -23.21875 Z M 14.96875 -23.21875 "/></g></g></g><g fill="#000000" fill-opacity="1"><g transform="translate(71.25551, 83.749594)"><g><path d="M 13.484375 -23.21875 L 22.84375 0 L 17.171875 0 L 15.453125 -4.640625 L 6.609375 -4.640625 L 4.890625 0 L -0.78125 0 L 8.578125 -23.21875 Z M 13.640625 -9.28125 L 11.0625 -16.046875 L 11 -16.046875 L 8.40625 -9.28125 Z M 13.640625 -9.28125 "/></g></g></g><g fill="#000000" fill-opacity="1"><g transform="translate(96.127649, 83.749594)"><g><path d="M 8.953125 0 L -0.78125 -23.21875 L 5.171875 -23.21875 L 11.03125 -7.96875 L 16.890625 -23.21875 L 22.84375 -23.21875 L 13.109375 0 Z M 8.953125 0 "/></g></g></g><g fill="#000000" fill-opacity="1"><g transform="translate(120.999796, 83.749594)"><g><path d="M 6.984375 -23.21875 L 6.984375 0 L 1.6875 0 L 1.6875 -23.21875 Z M 6.984375 -23.21875 "/></g></g></g><g fill="#000000" fill-opacity="1"><g transform="translate(132.47951, 83.749594)"><g><path d="M 0.640625 -11.625 C 0.640625 -14.976562 1.785156 -17.816406 4.078125 -20.140625 C 6.367188 -22.472656 9.128906 -23.640625 12.359375 -23.640625 C 15.597656 -23.640625 18.351562 -22.476562 20.625 -20.15625 C 22.894531 -17.84375 24.03125 -15 24.03125 -11.625 C 24.03125 -8.226562 22.910156 -5.367188 20.671875 -3.046875 C 18.441406 -0.734375 15.671875 0.421875 12.359375 0.421875 C 8.960938 0.421875 6.160156 -0.722656 3.953125 -3.015625 C 1.742188 -5.316406 0.640625 -8.1875 0.640625 -11.625 Z M 6.359375 -11.625 C 6.359375 -10.40625 6.546875 -9.289062 6.921875 -8.28125 C 7.296875 -7.28125 7.953125 -6.429688 8.890625 -5.734375 C 9.828125 -5.046875 10.984375 -4.703125 12.359375 -4.703125 C 14.328125 -4.703125 15.8125 -5.375 16.8125 -6.71875 C 17.8125 -8.070312 18.3125 -9.707031 18.3125 -11.625 C 18.3125 -13.519531 17.800781 -15.144531 16.78125 -16.5 C 15.757812 -17.863281 14.285156 -18.546875 12.359375 -18.546875 C 10.441406 -18.546875 8.960938 -17.863281 7.921875 -16.5 C 6.878906 -15.144531 6.359375 -13.519531 6.359375 -11.625 Z M 6.359375 -11.625 "/></g></g></g><g fill="#000000" fill-opacity="1"><g transform="translate(159.968237, 83.749594)"><g><path d="M 6.984375 -14.40625 L 6.984375 0 L 1.6875 0 L 1.6875 -23.21875 L 6.984375 -23.21875 L 16.203125 -8.8125 L 16.265625 -8.8125 L 16.265625 -23.21875 L 21.5625 -23.21875 L 21.5625 0 L 16.265625 0 L 7.03125 -14.40625 Z M 6.984375 -14.40625 "/></g></g></g><g clip-path="url(#646465c484)"><g fill="#004aad" fill-opacity="1"><g transform="translate(0.316264, 83.749594)"><g><path d="M 10.25 -23.640625 C 11.5 -23.640625 12.722656 -23.457031 13.921875 -23.09375 C 15.128906 -22.726562 16.023438 -22.363281 16.609375 -22 L 17.453125 -21.4375 L 15.3125 -17.21875 C 15.144531 -17.332031 14.910156 -17.476562 14.609375 -17.65625 C 14.304688 -17.832031 13.738281 -18.070312 12.90625 -18.375 C 12.082031 -18.675781 11.316406 -18.828125 10.609375 -18.828125 C 9.722656 -18.828125 9.039062 -18.640625 8.5625 -18.265625 C 8.082031 -17.890625 7.84375 -17.382812 7.84375 -16.75 C 7.84375 -16.425781 7.957031 -16.128906 8.1875 -15.859375 C 8.414062 -15.585938 8.800781 -15.296875 9.34375 -14.984375 C 9.882812 -14.671875 10.359375 -14.421875 10.765625 -14.234375 C 11.179688 -14.046875 11.820312 -13.765625 12.6875 -13.390625 C 14.1875 -12.753906 15.46875 -11.882812 16.53125 -10.78125 C 17.59375 -9.6875 18.125 -8.445312 18.125 -7.0625 C 18.125 -5.726562 17.882812 -4.5625 17.40625 -3.5625 C 16.925781 -2.570312 16.269531 -1.796875 15.4375 -1.234375 C 14.601562 -0.671875 13.675781 -0.253906 12.65625 0.015625 C 11.644531 0.285156 10.550781 0.421875 9.375 0.421875 C 8.351562 0.421875 7.351562 0.316406 6.375 0.109375 C 5.40625 -0.0976562 4.59375 -0.351562 3.9375 -0.65625 C 3.28125 -0.96875 2.6875 -1.273438 2.15625 -1.578125 C 1.632812 -1.878906 1.253906 -2.128906 1.015625 -2.328125 L 0.640625 -2.640625 L 3.296875 -7.09375 C 3.515625 -6.90625 3.820312 -6.664062 4.21875 -6.375 C 4.613281 -6.082031 5.3125 -5.691406 6.3125 -5.203125 C 7.320312 -4.710938 8.210938 -4.46875 8.984375 -4.46875 C 11.210938 -4.46875 12.328125 -5.226562 12.328125 -6.75 C 12.328125 -7.070312 12.242188 -7.367188 12.078125 -7.640625 C 11.921875 -7.910156 11.640625 -8.179688 11.234375 -8.453125 C 10.835938 -8.722656 10.484375 -8.9375 10.171875 -9.09375 C 9.859375 -9.257812 9.347656 -9.503906 8.640625 -9.828125 C 7.941406 -10.160156 7.425781 -10.410156 7.09375 -10.578125 C 5.6875 -11.273438 4.597656 -12.144531 3.828125 -13.1875 C 3.054688 -14.226562 2.671875 -15.347656 2.671875 -16.546875 C 2.671875 -18.628906 3.4375 -20.332031 4.96875 -21.65625 C 6.507812 -22.976562 8.269531 -23.640625 10.25 -23.640625 Z M 10.25 -23.640625 "/></g></g></g></g><g fill="#004aad" fill-opacity="1"><g transform="translate(4.849221, 104.269197)"><g><path d="M 8.953125 0 L -0.78125 -23.21875 L 5.171875 -23.21875 L 11.03125 -7.96875 L 16.890625 -23.21875 L 22.84375 -23.21875 L 13.109375 0 Z M 8.953125 0 "/></g></g></g></svg>