<svg xmlns="http://www.w3.org/2000/svg" xmlns:xlink="http://www.w3.org/1999/xlink" width="1080" zoomAndPan="magnify" viewBox="0 0 810 809.999993" height="1080" preserveAspectRatio="xMidYMid meet" version="1.0"><defs><g/></defs><g fill="#000000" fill-opacity="1"><g transform="translate(142.280958, 408.248203)"><g><path d="M 40.046875 -92.40625 C 44.953125 -92.40625 49.75 -91.6875 54.4375 -90.25 C 59.132812 -88.820312 62.625 -87.410156 64.90625 -86.015625 L 68.203125 -83.8125 L 59.84375 -67.3125 C 59.175781 -67.757812 58.253906 -68.328125 57.078125 -69.015625 C 55.910156 -69.710938 53.710938 -70.648438 50.484375 -71.828125 C 47.265625 -73.003906 44.257812 -73.59375 41.46875 -73.59375 C 38.019531 -73.59375 35.359375 -72.859375 33.484375 -71.390625 C 31.617188 -69.921875 30.6875 -67.941406 30.6875 -65.453125 C 30.6875 -64.203125 31.125 -63.046875 32 -61.984375 C 32.882812 -60.921875 34.390625 -59.785156 36.515625 -58.578125 C 38.640625 -57.367188 40.507812 -56.394531 42.125 -55.65625 C 43.738281 -54.925781 46.234375 -53.828125 49.609375 -52.359375 C 55.472656 -49.867188 60.476562 -46.476562 64.625 -42.1875 C 68.769531 -37.894531 70.84375 -33.035156 70.84375 -27.609375 C 70.84375 -22.398438 69.90625 -17.851562 68.03125 -13.96875 C 66.164062 -10.082031 63.597656 -7.039062 60.328125 -4.84375 C 57.066406 -2.644531 53.457031 -1.015625 49.5 0.046875 C 45.539062 1.117188 41.25 1.65625 36.625 1.65625 C 32.664062 1.65625 28.78125 1.25 24.96875 0.4375 C 21.15625 -0.363281 17.960938 -1.367188 15.390625 -2.578125 C 12.828125 -3.796875 10.519531 -4.988281 8.46875 -6.15625 C 6.414062 -7.332031 4.910156 -8.320312 3.953125 -9.125 L 2.53125 -10.34375 L 12.875 -27.71875 C 13.75 -26.988281 14.957031 -26.050781 16.5 -24.90625 C 18.039062 -23.769531 20.769531 -22.25 24.6875 -20.34375 C 28.613281 -18.4375 32.082031 -17.484375 35.09375 -17.484375 C 43.820312 -17.484375 48.1875 -20.457031 48.1875 -26.40625 C 48.1875 -27.644531 47.875 -28.796875 47.25 -29.859375 C 46.625 -30.921875 45.519531 -31.984375 43.9375 -33.046875 C 42.363281 -34.117188 40.972656 -34.960938 39.765625 -35.578125 C 38.554688 -36.203125 36.578125 -37.15625 33.828125 -38.4375 C 31.078125 -39.726562 29.039062 -40.703125 27.71875 -41.359375 C 22.21875 -44.078125 17.960938 -47.46875 14.953125 -51.53125 C 11.953125 -55.601562 10.453125 -59.988281 10.453125 -64.6875 C 10.453125 -72.820312 13.457031 -79.472656 19.46875 -84.640625 C 25.476562 -89.816406 32.335938 -92.40625 40.046875 -92.40625 Z M 40.046875 -92.40625 "/></g></g></g><g fill="#000000" fill-opacity="1"><g transform="translate(227.195674, 408.248203)"><g><path d="M 58.515625 -90.75 L 58.515625 -72.59375 L 27.28125 -72.59375 L 27.28125 -54.5625 L 57.203125 -54.5625 L 57.203125 -36.40625 L 27.28125 -36.40625 L 27.28125 -18.15625 L 58.515625 -18.15625 L 58.515625 0 L 6.59375 0 L 6.59375 -90.75 Z M 58.515625 -90.75 "/></g></g></g><g fill="#000000" fill-opacity="1"><g transform="translate(301.991102, 408.248203)"><g><path d="M 52.6875 -90.75 L 89.3125 0 L 67.09375 0 L 60.390625 -18.15625 L 25.84375 -18.15625 L 19.140625 0 L -3.078125 0 L 33.546875 -90.75 Z M 53.34375 -36.296875 L 43.234375 -62.703125 L 43.015625 -62.703125 L 32.890625 -36.296875 Z M 53.34375 -36.296875 "/></g></g></g><g fill="#000000" fill-opacity="1"><g transform="translate(399.22493, 408.248203)"><g><path d="M 34.984375 0 L -3.078125 -90.75 L 20.234375 -90.75 L 43.125 -31.125 L 66 -90.75 L 89.3125 -90.75 L 51.265625 0 Z M 34.984375 0 "/></g></g></g><g fill="#000000" fill-opacity="1"><g transform="translate(496.458758, 408.248203)"><g><path d="M 27.28125 -90.75 L 27.28125 0 L 6.59375 0 L 6.59375 -90.75 Z M 27.28125 -90.75 "/></g></g></g><g fill="#000000" fill-opacity="1"><g transform="translate(541.336327, 408.248203)"><g><path d="M 2.53125 -45.4375 C 2.53125 -58.5625 7.003906 -69.671875 15.953125 -78.765625 C 24.898438 -87.859375 35.679688 -92.40625 48.296875 -92.40625 C 60.972656 -92.40625 71.75 -87.875 80.625 -78.8125 C 89.5 -69.757812 93.9375 -58.632812 93.9375 -45.4375 C 93.9375 -32.15625 89.570312 -20.984375 80.84375 -11.921875 C 72.125 -2.867188 61.273438 1.65625 48.296875 1.65625 C 35.015625 1.65625 24.066406 -2.832031 15.453125 -11.8125 C 6.835938 -20.800781 2.53125 -32.007812 2.53125 -45.4375 Z M 24.859375 -45.4375 C 24.859375 -40.664062 25.59375 -36.316406 27.0625 -32.390625 C 28.53125 -28.472656 31.097656 -25.15625 34.765625 -22.4375 C 38.429688 -19.726562 42.941406 -18.375 48.296875 -18.375 C 55.992188 -18.375 61.800781 -21.007812 65.71875 -26.28125 C 69.644531 -31.5625 71.609375 -37.945312 71.609375 -45.4375 C 71.609375 -52.84375 69.609375 -59.203125 65.609375 -64.515625 C 61.617188 -69.828125 55.847656 -72.484375 48.296875 -72.484375 C 40.804688 -72.484375 35.023438 -69.828125 30.953125 -64.515625 C 26.890625 -59.203125 24.859375 -52.84375 24.859375 -45.4375 Z M 24.859375 -45.4375 "/></g></g></g><g fill="#000000" fill-opacity="1"><g transform="translate(648.799456, 408.248203)"><g><path d="M 27.28125 -56.3125 L 27.28125 0 L 6.59375 0 L 6.59375 -90.75 L 27.28125 -90.75 L 63.359375 -34.4375 L 63.578125 -34.4375 L 63.578125 -90.75 L 84.265625 -90.75 L 84.265625 0 L 63.578125 0 L 27.5 -56.3125 Z M 27.28125 -56.3125 "/></g></g></g><g fill="#000000" fill-opacity="1"><g transform="translate(18.978011, 396.870938)"><g><path d="M 41.859375 -96.59375 C 46.992188 -96.59375 52.015625 -95.84375 56.921875 -94.34375 C 61.828125 -92.851562 65.46875 -91.382812 67.84375 -89.9375 L 71.296875 -87.625 L 62.5625 -70.375 C 61.875 -70.832031 60.914062 -71.425781 59.6875 -72.15625 C 58.457031 -72.882812 56.15625 -73.863281 52.78125 -75.09375 C 49.40625 -76.320312 46.265625 -76.9375 43.359375 -76.9375 C 39.753906 -76.9375 36.972656 -76.164062 35.015625 -74.625 C 33.054688 -73.09375 32.078125 -71.023438 32.078125 -68.421875 C 32.078125 -67.117188 32.535156 -65.910156 33.453125 -64.796875 C 34.378906 -63.691406 35.953125 -62.503906 38.171875 -61.234375 C 40.398438 -59.972656 42.359375 -58.957031 44.046875 -58.1875 C 45.734375 -57.425781 48.335938 -56.273438 51.859375 -54.734375 C 57.992188 -52.128906 63.226562 -48.582031 67.5625 -44.09375 C 71.894531 -39.613281 74.0625 -34.535156 74.0625 -28.859375 C 74.0625 -23.421875 73.082031 -18.671875 71.125 -14.609375 C 69.164062 -10.546875 66.476562 -7.363281 63.0625 -5.0625 C 59.65625 -2.757812 55.882812 -1.054688 51.75 0.046875 C 47.613281 1.160156 43.128906 1.71875 38.296875 1.71875 C 34.148438 1.71875 30.082031 1.296875 26.09375 0.453125 C 22.113281 -0.390625 18.78125 -1.441406 16.09375 -2.703125 C 13.414062 -3.960938 11.003906 -5.207031 8.859375 -6.4375 C 6.710938 -7.664062 5.140625 -8.703125 4.140625 -9.546875 L 2.640625 -10.8125 L 13.453125 -28.984375 C 14.367188 -28.210938 15.632812 -27.234375 17.25 -26.046875 C 18.863281 -24.859375 21.71875 -23.265625 25.8125 -21.265625 C 29.914062 -19.273438 33.539062 -18.28125 36.6875 -18.28125 C 45.8125 -18.28125 50.375 -21.382812 50.375 -27.59375 C 50.375 -28.90625 50.046875 -30.113281 49.390625 -31.21875 C 48.742188 -32.332031 47.59375 -33.441406 45.9375 -34.546875 C 44.289062 -35.660156 42.832031 -36.546875 41.5625 -37.203125 C 40.300781 -37.859375 38.234375 -38.851562 35.359375 -40.1875 C 32.484375 -41.53125 30.359375 -42.546875 28.984375 -43.234375 C 23.234375 -46.078125 18.785156 -49.625 15.640625 -53.875 C 12.492188 -58.132812 10.921875 -62.71875 10.921875 -67.625 C 10.921875 -76.132812 14.0625 -83.085938 20.34375 -88.484375 C 26.632812 -93.890625 33.804688 -96.59375 41.859375 -96.59375 Z M 41.859375 -96.59375 "/></g></g></g><g fill="#000000" fill-opacity="1"><g transform="translate(42.386505, 475.62319)"><g><path d="M 36.5625 0 L -3.21875 -94.875 L 21.15625 -94.875 L 45.078125 -32.546875 L 69 -94.875 L 93.375 -94.875 L 53.59375 0 Z M 36.5625 0 "/></g></g></g></svg>