<svg xmlns="http://www.w3.org/2000/svg" xmlns:xlink="http://www.w3.org/1999/xlink" width="250" zoomAndPan="magnify" viewBox="0 0 187.5 165.000002" height="220" preserveAspectRatio="xMidYMid meet" version="1.0"><defs><g/></defs><g fill="#004aad" fill-opacity="1"><g transform="translate(52.239785, 84.346357)"><g><path d="M 36 -83.0625 C 40.414062 -83.0625 44.734375 -82.421875 48.953125 -81.140625 C 53.171875 -79.859375 56.300781 -78.585938 58.34375 -77.328125 L 61.3125 -75.359375 L 53.796875 -60.515625 C 53.203125 -60.910156 52.375 -61.421875 51.3125 -62.046875 C 50.257812 -62.679688 48.285156 -63.523438 45.390625 -64.578125 C 42.492188 -65.628906 39.789062 -66.15625 37.28125 -66.15625 C 34.1875 -66.15625 31.796875 -65.492188 30.109375 -64.171875 C 28.429688 -62.859375 27.59375 -61.082031 27.59375 -58.84375 C 27.59375 -57.71875 27.988281 -56.675781 28.78125 -55.71875 C 29.570312 -54.769531 30.921875 -53.75 32.828125 -52.65625 C 34.742188 -51.570312 36.425781 -50.695312 37.875 -50.03125 C 39.320312 -49.375 41.5625 -48.390625 44.59375 -47.078125 C 49.875 -44.828125 54.375 -41.773438 58.09375 -37.921875 C 61.820312 -34.066406 63.6875 -29.703125 63.6875 -24.828125 C 63.6875 -20.140625 62.84375 -16.046875 61.15625 -12.546875 C 59.476562 -9.054688 57.171875 -6.320312 54.234375 -4.34375 C 51.304688 -2.375 48.0625 -0.910156 44.5 0.046875 C 40.9375 1.003906 37.082031 1.484375 32.9375 1.484375 C 29.375 1.484375 25.878906 1.117188 22.453125 0.390625 C 19.023438 -0.328125 16.15625 -1.226562 13.84375 -2.3125 C 11.539062 -3.40625 9.460938 -4.476562 7.609375 -5.53125 C 5.765625 -6.59375 4.414062 -7.484375 3.5625 -8.203125 L 2.28125 -9.296875 L 11.5625 -24.921875 C 12.351562 -24.265625 13.441406 -23.421875 14.828125 -22.390625 C 16.210938 -21.367188 18.664062 -20 22.1875 -18.28125 C 25.71875 -16.570312 28.835938 -15.71875 31.546875 -15.71875 C 39.390625 -15.71875 43.3125 -18.390625 43.3125 -23.734375 C 43.3125 -24.859375 43.03125 -25.894531 42.46875 -26.84375 C 41.914062 -27.800781 40.925781 -28.757812 39.5 -29.71875 C 38.082031 -30.675781 36.832031 -31.429688 35.75 -31.984375 C 34.664062 -32.546875 32.882812 -33.40625 30.40625 -34.5625 C 27.9375 -35.71875 26.109375 -36.59375 24.921875 -37.1875 C 19.972656 -39.625 16.144531 -42.671875 13.4375 -46.328125 C 10.738281 -49.984375 9.390625 -53.921875 9.390625 -58.140625 C 9.390625 -65.460938 12.09375 -71.445312 17.5 -76.09375 C 22.90625 -80.738281 29.070312 -83.0625 36 -83.0625 Z M 36 -83.0625 "/></g></g></g><g fill="#004aad" fill-opacity="1"><g transform="translate(66.761577, 156.46745)"><g><path d="M 31.453125 0 L -2.765625 -81.578125 L 18.203125 -81.578125 L 38.765625 -27.984375 L 59.328125 -81.578125 L 80.296875 -81.578125 L 46.078125 0 Z M 31.453125 0 "/></g></g></g></svg>